<?xml version="1.0" standalone="no"?>
<!DOCTYPE svg PUBLIC "-//W3C//DTD SVG 20010904//EN"
 "http://www.w3.org/TR/2001/REC-SVG-20010904/DTD/svg10.dtd">
<svg version="1.0" xmlns="http://www.w3.org/2000/svg"
 width="496.000000pt" height="496.000000pt" viewBox="0 0 496.000000 496.000000"
 preserveAspectRatio="xMidYMid meet">
<metadata>
Created by potrace 1.14, written by Peter Selinger 2001-2017
</metadata>
<g transform="translate(0.000000,496.000000) scale(0.100000,-0.100000)"
fill="#000000" stroke="none">
<path d="M2280 4950 c-85 -8 -109 -11 -230 -31 -498 -83 -975 -332 -1331 -696
-85 -86 -148 -155 -171 -188 -4 -5 -20 -26 -36 -45 -16 -19 -63 -87 -104 -150
-270 -413 -406 -866 -406 -1360 0 -181 3 -216 34 -410 61 -384 222 -758 467
-1085 71 -95 314 -353 372 -395 11 -8 43 -33 70 -56 65 -53 168 -124 230 -159
28 -16 52 -32 55 -36 17 -24 424 -208 435 -197 3 3 -34 19 -83 38 -89 33 -304
138 -351 169 -14 10 -72 48 -128 85 -56 36 -108 72 -115 79 -7 7 -44 37 -83
67 -67 53 -221 204 -297 292 -133 154 -287 396 -367 578 -18 41 -37 84 -42 95
-28 63 -91 269 -113 367 -66 298 -79 622 -36 908 80 528 324 1007 702 1376
156 154 200 190 378 309 273 182 612 314 950 369 154 25 197 28 356 31 397 5
787 -85 1139 -264 891 -454 1413 -1391 1332 -2391 -23 -287 -109 -593 -242
-867 -81 -166 -217 -379 -302 -472 -12 -13 -48 -54 -80 -90 -72 -82 -246 -244
-333 -309 -326 -245 -734 -417 -1122 -472 -136 -20 -183 -23 -338 -24 -235 -1
-420 21 -637 76 -50 13 -90 21 -87 17 5 -9 240 -65 304 -74 25 -3 72 -11 105
-16 33 -6 155 -12 270 -14 209 -4 381 11 530 45 28 6 57 13 65 15 91 20 130
31 220 61 58 19 114 39 125 44 11 5 43 19 70 31 287 125 514 275 739 489 87
84 266 283 266 298 0 4 10 18 23 32 40 44 172 261 224 370 89 184 160 390 202
585 10 51 12 61 36 225 17 123 17 437 -1 560 -7 52 -16 115 -20 139 -11 79
-70 304 -108 411 -83 233 -248 526 -409 725 -64 79 -220 242 -287 300 -309
266 -667 454 -1040 546 -244 60 -580 89 -800 69z"/>
<path d="M2321 4677 c-8 -11 -6 -20 9 -37 18 -21 20 -37 20 -192 0 -141 -2
-170 -15 -174 -24 -9 -18 -43 8 -48 31 -6 136 -6 175 0 23 3 32 10 32 23 0 11
-7 21 -15 25 -23 9 -22 342 1 367 9 10 14 25 11 34 -9 21 -209 22 -226 2z"/>
<path d="M1935 4639 c-44 -10 -89 -20 -100 -23 -21 -4 -97 -24 -127 -32 -25
-7 -22 -29 4 -46 19 -13 29 -44 59 -174 33 -145 35 -161 22 -183 -13 -19 -13
-25 -1 -37 13 -13 25 -11 196 31 27 7 30 40 3 54 -32 18 -53 141 -24 141 5 0
28 -25 51 -55 41 -52 42 -56 27 -78 -28 -44 -2 -49 110 -23 55 12 108 27 119
33 17 10 17 11 1 24 -44 35 -128 124 -148 156 -5 8 2 26 17 46 49 65 38 140
-27 170 -44 21 -80 20 -182 -4z m55 -79 c41 -41 17 -118 -41 -133 -23 -6 -32
12 -44 81 -8 49 5 72 41 72 13 0 33 -9 44 -20z"/>
<path d="M2974 4636 c-3 -8 -1 -24 6 -35 16 -32 -92 -324 -126 -340 -50 -22
-19 -54 65 -68 l34 -6 -7 43 c-6 36 -1 58 25 124 38 95 49 111 49 71 2 -86 12
-193 22 -217 13 -36 61 -47 89 -22 11 10 50 56 87 102 36 46 68 80 69 75 2 -5
-8 -45 -22 -88 -14 -44 -25 -85 -25 -92 0 -6 -15 -23 -32 -37 -29 -23 -31 -27
-18 -41 23 -22 192 -77 204 -65 6 6 6 21 -1 42 -6 24 -5 46 5 78 8 25 25 83
38 130 33 116 42 137 66 143 12 4 18 12 16 24 -4 21 -150 77 -178 68 -9 -3
-44 -43 -79 -90 -34 -47 -66 -85 -71 -85 -4 0 -8 50 -8 111 0 79 -5 116 -14
125 -12 12 -158 64 -180 64 -5 0 -11 -6 -14 -14z"/>
<path d="M1380 4436 c-19 -8 -63 -30 -97 -50 -34 -20 -64 -36 -67 -36 -3 0
-32 -16 -66 -36 -65 -38 -75 -63 -32 -74 18 -4 42 -39 102 -149 66 -121 77
-149 73 -177 -5 -29 -3 -34 15 -34 29 0 249 127 299 173 54 49 78 110 70 176
-19 157 -162 257 -297 207z m26 -105 c94 -43 150 -198 97 -269 -26 -34 -48
-39 -69 -14 -22 26 -143 253 -144 270 0 13 33 30 60 31 8 0 33 -8 56 -18z"/>
<path d="M3653 4337 c4 -28 -9 -51 -87 -167 -67 -99 -98 -136 -116 -140 -54
-12 -29 -40 135 -151 87 -60 165 -109 172 -109 17 0 63 51 63 71 0 28 -25 40
-68 33 -46 -7 -92 14 -113 52 -12 22 -2 45 50 123 13 20 53 -7 86 -59 14 -22
32 -40 40 -40 8 0 27 18 42 41 31 48 23 76 -20 71 -26 -3 -97 35 -97 51 0 23
57 87 77 87 32 0 72 -39 87 -85 18 -52 46 -57 76 -15 20 28 20 33 7 53 -19 29
-297 217 -320 217 -15 0 -18 -6 -14 -33z"/>
<path d="M790 4022 c-27 -27 -30 -36 -26 -74 5 -48 31 -121 95 -267 22 -52 41
-102 41 -112 0 -60 28 -63 85 -7 37 34 42 44 34 60 -6 12 -17 17 -25 14 -17
-6 -64 35 -64 56 0 8 23 36 50 63 l50 49 36 -19 c24 -13 34 -25 33 -39 -5 -67
14 -61 112 33 71 69 81 82 70 95 -8 9 -25 16 -39 16 -13 0 -93 34 -176 75 -91
45 -170 77 -198 81 -43 6 -49 4 -78 -24z m138 -159 c47 -28 46 -35 -10 -74
l-28 -20 -19 43 c-10 24 -21 54 -26 66 -6 22 -5 23 17 17 12 -4 42 -19 66 -32z"/>
<path d="M4162 3874 c-26 -7 -101 -33 -166 -59 -122 -46 -143 -53 -183 -54
-34 -1 -28 -30 17 -79 42 -46 74 -53 76 -16 2 30 12 44 42 55 24 9 31 6 74
-43 26 -29 48 -56 48 -59 1 -20 -44 -58 -72 -61 -17 -2 -33 -8 -35 -15 -4 -10
114 -156 142 -175 18 -14 29 -2 41 43 6 25 30 78 54 118 70 120 110 209 117
256 5 40 3 47 -25 73 -33 31 -58 34 -130 16z m8 -75 c0 -18 -54 -109 -65 -109
-5 0 -23 16 -38 35 l-28 35 43 19 c83 35 88 36 88 20z"/>
<path d="M530 3641 c-115 -35 -200 -153 -200 -278 0 -77 25 -138 75 -182 111
-97 255 -84 345 30 27 35 61 63 93 79 58 28 103 80 113 127 5 26 2 34 -20 48
-32 21 -49 11 -78 -52 -25 -54 -38 -55 -38 -2 0 69 -21 121 -70 169 -61 62
-143 84 -220 61z m75 -166 c67 -34 131 -87 138 -115 6 -24 -7 -26 -56 -5 -34
14 -37 14 -47 -6 -9 -16 -8 -25 6 -40 9 -10 25 -21 35 -24 32 -11 21 -25 -20
-25 -49 0 -164 57 -214 105 -44 43 -49 86 -14 123 19 20 29 23 69 19 26 -2 72
-17 103 -32z"/>
<path d="M4422 3580 c-45 -19 -35 -70 14 -70 13 0 34 -10 45 -21 l22 -22 -29
-15 c-16 -8 -80 -43 -141 -79 -87 -49 -121 -63 -147 -61 -20 1 -39 -1 -43 -6
-8 -8 82 -186 100 -198 16 -10 37 3 37 23 0 20 29 41 155 109 44 24 94 52 110
62 17 10 33 18 38 18 10 0 9 -58 -3 -80 -14 -26 -2 -50 24 -50 22 0 76 47 76
66 0 5 -40 81 -89 169 -81 145 -92 160 -118 162 -15 1 -38 -2 -51 -7z"/>
<path d="M2740 3182 c-69 -92 -130 -174 -137 -182 -7 -8 -39 -51 -73 -95 l-61
-80 63 -60 c197 -188 361 -340 370 -344 6 -2 18 5 27 17 9 11 95 113 191 227
232 275 270 322 270 332 -1 4 -37 37 -81 73 -45 36 -91 74 -103 85 -12 12 -34
30 -48 40 -148 115 -202 147 -258 151 -34 2 -37 -1 -160 -164z m218 16 c21
-21 14 -66 -12 -83 -28 -19 -75 -5 -78 22 -3 34 3 57 15 65 18 12 62 9 75 -4z"/>
<path d="M1690 3255 c0 -82 102 -303 209 -455 42 -61 148 -199 160 -210 4 -3
37 -41 75 -85 104 -119 607 -624 639 -641 27 -14 32 -13 97 20 70 37 109 43
153 27 22 -9 25 -6 36 30 15 50 31 51 24 0 -11 -78 55 -163 343 -446 127 -125
142 -146 149 -196 5 -43 20 -57 79 -74 58 -17 95 -13 147 17 63 35 84 95 54
155 -20 40 -269 282 -519 504 -87 77 -188 172 -371 348 -116 111 -305 286
-390 362 -27 24 -59 53 -70 64 -11 11 -68 60 -125 110 -58 49 -107 92 -110 96
-7 8 -194 157 -271 217 -108 83 -234 160 -286 176 -20 6 -23 4 -23 -19z m1548
-1337 c18 -18 14 -56 -6 -67 -41 -22 -85 45 -44 68 23 14 36 13 50 -1z m252
-263 c27 -32 -23 -82 -55 -55 -15 13 -20 51 -8 63 12 12 50 7 63 -8z m244
-257 c13 -22 -2 -51 -28 -56 -24 -5 -56 26 -49 46 14 36 57 41 77 10z"/>
<path d="M3359 2874 c-40 -54 -89 -116 -108 -139 -20 -23 -58 -68 -86 -100
-52 -61 -81 -93 -171 -187 -30 -31 -54 -60 -54 -66 0 -14 71 -72 88 -72 31 0
315 333 462 543 37 53 40 43 -32 97 l-26 20 -73 -96z"/>
<path d="M229 2857 c5 -13 48 -101 95 -196 47 -95 86 -179 86 -186 0 -7 -43
-98 -94 -201 -52 -104 -93 -190 -91 -193 10 -10 487 -6 495 5 5 5 9 98 9 205
0 106 1 242 1 301 l0 108 102 76 c56 42 108 82 115 90 12 11 -45 13 -356 14
l-371 0 9 -23z"/>
<path d="M3980 2869 c0 -4 6 -12 14 -16 14 -8 95 -76 155 -130 l36 -31 2 -303
c1 -191 5 -304 11 -308 8 -5 469 -7 505 -2 4 1 -36 86 -88 191 -52 104 -95
197 -95 206 0 8 43 101 95 205 52 104 92 190 88 190 -33 7 -723 5 -723 -2z"/>
<path d="M820 2250 l0 -390 359 0 359 1 74 82 c40 45 96 106 123 137 136 151
201 224 210 234 41 45 75 88 75 95 0 5 -17 29 -38 52 -22 24 -64 73 -94 109
l-54 65 -507 3 -507 2 0 -390z m306 34 c11 -1 39 -2 63 -3 l44 -1 -51 -40 -50
-40 18 -60 c10 -33 16 -60 13 -60 -3 0 -27 16 -54 35 l-48 36 -47 -36 c-25
-20 -49 -34 -51 -31 -3 3 2 26 11 52 9 26 16 53 16 59 0 6 -21 26 -46 44 -25
18 -42 36 -39 39 3 4 30 5 60 4 l53 -2 18 53 c25 76 25 76 50 11 15 -41 27
-59 40 -60z m377 56 c10 -33 21 -59 25 -59 4 1 32 1 62 0 l55 -2 -27 -23 c-15
-13 -37 -31 -49 -39 -21 -15 -21 -17 -5 -63 23 -69 22 -78 -11 -57 -16 9 -38
25 -49 36 -22 18 -22 18 -73 -18 -56 -41 -60 -36 -35 39 16 46 16 48 -5 63
-12 8 -34 26 -49 39 -30 26 -29 27 55 26 l42 -1 17 60 c9 32 20 59 23 59 4 0
15 -27 24 -60z"/>
<path d="M3453 2626 c-5 -8 -44 -54 -89 -102 -175 -192 -265 -296 -262 -304 2
-4 76 -87 166 -184 l163 -176 334 0 335 0 0 390 0 390 -320 0 c-256 -1 -321
-4 -327 -14z m22 -284 c17 -57 18 -59 54 -59 20 0 47 -1 61 -2 l25 -2 -27 -23
c-15 -13 -36 -31 -47 -38 -20 -14 -20 -17 -5 -67 8 -29 14 -57 12 -62 -2 -6
-25 6 -51 26 l-47 36 -47 -36 c-26 -20 -49 -32 -51 -26 -2 6 4 34 13 62 17 50
17 51 -4 66 -12 8 -34 26 -49 39 l-27 23 25 2 c14 0 40 1 58 1 36 1 53 23 67
86 3 17 10 32 14 32 4 0 16 -26 26 -58z m409 21 c18 -75 23 -80 83 -82 31 0
58 -2 60 -4 1 -2 -17 -19 -42 -37 -49 -37 -52 -47 -30 -110 8 -24 13 -45 11
-47 -2 -2 -25 12 -50 32 l-47 36 -50 -37 c-28 -20 -52 -34 -54 -32 -3 3 4 30
14 61 l20 57 -44 33 c-24 17 -44 37 -45 42 0 6 25 10 57 10 l56 0 20 58 c20
60 31 65 41 20z"/>
<path d="M2034 2304 c-60 -60 -145 -149 -189 -198 -44 -49 -85 -94 -90 -100
-9 -9 -156 -180 -229 -266 -33 -39 -158 -210 -189 -258 -49 -76 -50 -86 -11
-126 41 -42 111 -92 158 -111 31 -13 36 -13 54 3 11 9 37 62 57 117 35 91 116
227 185 309 101 121 172 195 243 257 45 40 85 77 89 83 3 5 -16 34 -43 65 -52
59 -69 101 -21 56 15 -15 87 -67 161 -115 117 -77 137 -88 155 -78 38 21 127
91 124 99 -2 4 -69 76 -149 161 -81 84 -158 166 -171 182 l-25 29 -109 -109z
m-69 -273 c14 -44 -26 -68 -59 -35 -12 12 -13 20 -6 35 14 25 57 25 65 0z
m-472 -582 c22 -35 -21 -75 -50 -46 -22 22 -10 65 18 63 12 0 26 -8 32 -17z"/>
<path d="M2450 1959 c-36 -27 -64 -54 -62 -61 7 -25 61 -67 82 -63 29 6 80 38
110 70 l24 25 -39 40 c-22 22 -42 40 -45 39 -3 0 -34 -23 -70 -50z"/>
<path d="M671 1783 c-1 -27 -27 -41 -145 -77 -85 -26 -89 -27 -109 -9 -15 14
-19 14 -15 3 3 -8 14 -41 24 -72 10 -32 22 -58 27 -58 5 0 7 6 4 14 -8 19 13
35 67 51 42 13 44 13 50 -8 3 -12 -1 -29 -11 -39 -23 -26 -12 -30 41 -16 48
13 61 34 25 40 -22 3 -48 32 -38 42 9 10 98 30 105 24 3 -4 8 -24 11 -45 4
-32 0 -45 -22 -71 -15 -18 -25 -35 -23 -37 2 -3 24 3 47 12 35 14 41 20 36 37
-3 12 -8 30 -11 41 -13 56 -62 187 -63 168z"/>
<path d="M4265 1751 c-3 -7 -24 -63 -45 -126 l-38 -113 26 -11 c48 -18 72 -23
72 -14 0 4 -9 14 -20 21 -25 15 -43 59 -33 77 6 10 30 5 113 -22 120 -40 133
-48 124 -76 -4 -12 -2 -17 4 -13 13 8 56 135 48 143 -3 3 -8 -2 -12 -11 -9
-23 -30 -20 -135 17 -52 19 -101 36 -109 39 -25 8 34 58 70 58 35 0 40 15 8
23 -13 3 -33 8 -44 12 -12 4 -25 2 -29 -4z"/>
<path d="M754 1525 c8 -23 -21 -46 -121 -98 -84 -43 -91 -45 -106 -29 -26 25
-20 2 14 -61 33 -62 40 -69 36 -35 -1 16 8 28 38 45 49 28 65 29 65 3 0 -19
-11 -32 -69 -77 -21 -17 -23 -24 -14 -49 11 -33 45 -54 76 -46 15 4 17 7 7 10
-41 11 -41 12 -11 50 17 21 32 50 33 65 2 24 4 26 14 13 6 -9 24 -22 39 -30
24 -13 32 -13 55 -1 52 27 47 79 -15 191 -33 59 -55 85 -41 49z m54 -112 c21
-37 -31 -89 -73 -73 -26 10 -54 42 -40 47 6 2 24 12 40 22 38 25 61 26 73 4z"/>
<path d="M4130 1432 c0 -5 41 -58 90 -116 61 -73 90 -115 90 -132 0 -33 15
-23 40 26 25 49 25 58 1 36 -35 -32 -81 16 -62 65 16 44 36 57 73 50 26 -6 33
-12 31 -29 -4 -33 3 -27 36 32 37 64 40 81 10 66 -11 -7 -37 -9 -57 -6 -83 12
-252 18 -252 8z m160 -72 c0 -15 -23 -60 -30 -60 -4 0 -20 16 -34 35 l-27 35
45 0 c26 0 46 -4 46 -10z"/>
<path d="M876 1286 c6 -25 -12 -42 -129 -121 -50 -34 -61 -37 -78 -27 -28 18
-24 3 17 -53 20 -28 51 -74 71 -102 19 -29 37 -53 39 -53 9 0 84 53 84 59 0 3
-22 5 -48 3 -41 -3 -51 0 -75 24 -15 14 -27 33 -27 40 0 16 76 74 98 74 12 0
13 -9 9 -45 l-7 -44 45 31 c50 35 56 47 22 41 -14 -3 -29 3 -40 15 -17 18 -16
20 17 46 42 32 60 33 80 4 20 -28 20 -77 1 -104 -8 -12 -12 -24 -8 -27 8 -8
73 43 73 57 0 13 -60 99 -72 104 -5 2 -8 8 -8 13 0 12 -53 88 -63 89 -4 0 -5
-11 -1 -24z"/>
<path d="M3982 1178 c-44 -62 -94 -126 -111 -142 -17 -17 -31 -35 -31 -42 0
-7 15 -41 34 -76 59 -112 59 -113 -43 -56 l-91 50 -40 -38 c-22 -21 -40 -43
-40 -48 0 -6 5 -5 11 1 18 18 39 4 117 -77 62 -64 72 -79 67 -103 -5 -27 -4
-27 18 -10 13 9 31 27 40 40 17 22 17 23 -11 17 -24 -5 -36 3 -92 61 -103 104
-97 104 100 -9 25 -14 48 -26 51 -26 23 0 11 44 -36 137 -30 59 -52 109 -50
112 3 2 21 -13 41 -35 20 -21 54 -58 76 -82 32 -35 37 -46 28 -58 -26 -30 7
-12 48 27 46 45 53 60 22 52 -16 -4 -39 13 -100 77 -44 45 -80 86 -80 92 0 19
33 58 50 58 10 0 31 -10 47 -23 15 -13 49 -38 75 -55 67 -46 80 -61 72 -86 -9
-31 8 -10 109 135 l46 67 -40 27 c-46 32 -55 29 -34 -11 8 -16 15 -35 15 -42
0 -26 -32 -82 -47 -82 -8 0 -35 14 -60 31 -40 28 -43 33 -30 47 9 8 30 15 46
14 17 0 31 1 31 3 0 6 -83 65 -92 65 -4 0 -3 -12 2 -26 7 -17 7 -32 0 -45 -10
-18 -12 -18 -50 7 -53 35 -56 50 -18 86 28 26 38 29 75 25 24 -2 43 -2 43 2 0
8 -67 51 -79 51 -5 0 -45 -51 -89 -112z"/>
<path d="M988 1030 c-37 -28 -39 -51 -12 -117 30 -73 30 -97 2 -110 -31 -14
-64 2 -78 38 -10 23 -9 38 2 74 9 25 12 45 9 45 -4 0 -22 -16 -41 -35 -34 -35
-34 -35 -13 -50 11 -8 26 -28 33 -44 26 -63 108 -85 155 -41 31 30 32 60 1
136 -17 42 -21 64 -15 76 12 22 52 23 73 2 18 -18 21 -76 6 -105 -15 -27 2
-24 32 6 l25 25 13 -25 c12 -22 9 -29 -46 -100 -32 -42 -64 -83 -71 -92 -7 -9
-20 -13 -33 -10 -33 9 -23 -10 26 -48 44 -33 82 -49 56 -23 -13 13 -2 38 29
72 11 11 19 23 19 28 0 15 21 8 55 -18 34 -25 34 -26 17 -52 -26 -43 -61 -72
-77 -66 -31 12 -13 -12 30 -41 24 -16 45 -33 45 -37 0 -5 5 -8 10 -8 6 0 8 10
4 24 -4 18 2 35 23 63 15 21 30 40 33 43 3 3 23 26 44 53 30 37 43 46 60 42
15 -4 10 4 -19 30 -22 20 -48 41 -58 46 -15 9 -17 7 -11 -15 4 -17 1 -31 -10
-41 -8 -9 -22 -25 -30 -37 -14 -20 -15 -20 -50 8 -39 31 -39 39 -3 85 16 21
28 27 45 24 12 -3 22 -1 22 5 0 5 -3 10 -8 10 -4 0 -19 11 -33 24 -14 13 -35
29 -47 35 -12 6 -22 18 -22 26 0 8 -9 15 -19 15 -13 0 -23 11 -31 35 -21 63
-91 86 -142 45z"/>
<path d="M3557 750 c-9 -11 -25 -20 -34 -20 -31 0 -79 -36 -96 -73 -24 -50
-21 -101 8 -147 44 -70 119 -89 195 -50 49 25 70 55 70 100 0 37 -14 69 -25
58 -4 -4 -3 -12 1 -20 31 -49 -16 -128 -77 -128 -25 0 -42 10 -74 44 -74 77
-88 168 -29 195 34 15 44 14 89 -9 21 -11 40 -18 41 -17 2 2 -9 22 -24 45 -27
40 -28 41 -45 22z"/>
<path d="M1555 630 c-28 -11 -41 -29 -49 -66 -6 -26 -13 -32 -49 -40 -101 -22
-70 -140 43 -160 19 -4 50 -20 68 -35 39 -34 52 -36 83 -8 13 11 17 18 9 16
-20 -6 -50 10 -50 27 0 21 45 56 73 56 40 0 33 13 -19 38 -50 25 -66 23 -40
-4 15 -14 15 -19 3 -38 -21 -30 -30 -24 -44 31 -17 64 -17 63 15 63 38 0 72
26 72 56 0 26 -32 64 -54 64 -8 0 -20 2 -28 4 -7 3 -22 1 -33 -4z m79 -32 c13
-21 -17 -68 -44 -68 -15 0 -20 7 -20 29 0 31 25 64 43 58 6 -2 15 -10 21 -19z
m-121 -135 c4 -21 9 -50 13 -65 8 -33 -9 -37 -43 -10 -28 22 -36 64 -17 91 23
32 41 26 47 -16z"/>
<path d="M3293 601 c-58 -28 -64 -38 -31 -43 22 -3 28 -12 91 -133 34 -66 36
-71 21 -93 -9 -14 -12 -23 -7 -21 4 2 36 19 71 37 60 31 81 49 43 37 -23 -7
-43 18 -99 131 -38 75 -40 82 -24 97 25 25 -2 20 -65 -12z"/>
<path d="M3195 552 c-11 -2 -31 -9 -45 -15 l-25 -10 25 -6 c20 -5 29 -20 48
-75 13 -38 22 -72 20 -77 -2 -5 -46 22 -97 60 l-95 68 -42 -14 c-23 -8 -102
-24 -175 -37 -117 -20 -131 -24 -108 -34 23 -9 28 -20 37 -74 25 -147 26 -168
6 -183 -25 -19 -20 -18 116 5 63 11 119 20 124 20 10 0 -2 91 -14 103 -4 5
-11 -5 -15 -21 -9 -44 -51 -82 -90 -82 -28 0 -33 4 -39 31 -12 61 -8 89 14 89
10 0 29 -10 41 -22 l21 -23 -7 55 c-8 64 -21 84 -30 47 -6 -23 -39 -46 -50
-35 -9 9 -22 87 -16 97 7 11 30 15 67 13 12 -1 36 -17 54 -34 l32 -33 -7 48
c-7 43 -5 47 13 47 15 0 25 -15 45 -72 45 -130 52 -157 39 -170 -23 -23 -12
-27 33 -11 53 18 67 33 28 30 -26 -2 -29 3 -60 91 -18 50 -29 92 -25 92 4 0
56 -36 116 -80 98 -71 136 -87 136 -57 0 6 -16 60 -37 120 -30 92 -34 113 -24
129 15 23 13 26 -14 20z"/>
<path d="M1873 496 c23 -18 22 -24 -14 -148 -26 -89 -35 -108 -53 -111 -15 -2
-9 -7 24 -16 25 -7 59 -15 75 -18 27 -4 28 -3 12 9 -16 12 -17 19 -6 68 7 30
14 57 16 59 6 8 93 -22 93 -33 0 -6 -6 -31 -14 -56 -10 -33 -19 -46 -37 -51
-27 -7 -23 -10 60 -33 68 -20 68 -20 47 3 -17 18 -16 24 10 123 30 116 41 133
77 124 36 -9 89 -135 85 -202 -2 -39 -7 -51 -26 -60 l-23 -11 23 -7 c13 -3 50
-5 83 -5 52 0 56 2 33 11 -25 8 -28 15 -28 51 0 59 86 217 110 202 5 -3 11 -1
14 4 3 5 -17 12 -45 16 -52 7 -81 -1 -41 -12 18 -4 21 -10 16 -27 -8 -25 -47
-86 -55 -86 -8 0 -39 81 -39 103 0 9 8 17 18 17 13 0 14 2 4 9 -7 4 -40 9 -73
10 -33 1 -72 6 -86 12 -14 5 -28 7 -31 5 -2 -3 -20 1 -38 9 -37 15 -40 14 -22
-14 9 -15 9 -29 -1 -60 -13 -44 -27 -50 -77 -31 -24 9 -26 14 -21 46 7 41 34
77 51 67 7 -4 8 -2 1 5 -10 10 -109 42 -129 42 -6 0 -3 -7 7 -14z"/>
<path d="M2494 402 c-34 -22 -71 -75 -74 -107 -7 -66 0 -88 45 -132 44 -45 45
-45 97 -39 29 4 65 7 81 8 26 1 27 3 27 49 0 38 5 51 22 63 12 9 20 16 18 17
-22 5 -119 4 -135 -1 -19 -7 -19 -7 3 -14 39 -13 41 -85 3 -105 -26 -15 -64 9
-78 49 -16 46 -16 139 0 170 32 63 102 56 136 -13 21 -42 24 -40 23 18 0 43 0
43 -24 43 -13 0 -43 3 -68 7 -35 5 -52 2 -76 -13z"/>
<path d="M1709 124 c19 -8 36 -12 39 -9 5 5 -43 25 -61 25 -7 -1 3 -7 22 -16z"/>
</g>
</svg>
